# xmcd
#
# Track frame offsets: 
#        150
#        12005
#        22830
#        35017
#        46562
#        60687
#        73897
#        89852
#        113412
#        127942
#        144492
#        161385
#        176065
#
# Disc length: 2519 seconds
#
# Revision: 5
# Processed by: cddbd v1.4PL0 Copyright (c) Steve Scherf et al.
# Submitted via: ExactAudioCopy v0.95a3
#
DISCID=a309d50d
DTITLE=Chuck Berry - Hail! Hail! Rock 'N' Roll
DYEAR=1987
DGENRE=Rock and Roll
TTITLE0=Maybellene
TTITLE1=Around And Around
TTITLE2=Sweet Little Sixteen
TTITLE3=Brown Eyed Handsome Man
TTITLE4=Memphis, Tennessee
TTITLE5=Too Much Monkey Business
TTITLE6=Back In The USA
TTITLE7=Wee Wee Hours
TTITLE8=Johnny B. Goode
TTITLE9=Little Queenie
TTITLE10=Rock And Roll Music
TTITLE11=Roll Over Beethoven
TTITLE12=I´m Through With Love
EXTD=
EXTT0=
EXTT1=
EXTT2=
EXTT3=
EXTT4=
EXTT5=
EXTT6=
EXTT7=
EXTT8=
EXTT9=
EXTT10=
EXTT11=
EXTT12=
PLAYORDER=
